<?xml version="1.0" encoding="UTF-8"?>
<svg id="Layer_1" data-name="Layer 1" xmlns="http://www.w3.org/2000/svg" viewBox="0 0 306.6 152.9">
  <path d="M266.7,145h-79.8l-39.9-69.1L186.9,6.8h79.8l39.9,69.1-39.9,69.1ZM200,60.3c-8.6,14.8-3.5,33.8,11.3,42.3,14.8,8.6,33.8,3.5,42.3-11.3,8.6-14.8,3.5-33.8-11.3-42.3-14.8-8.6-33.8-3.5-42.3,11.3M42.8,52.9l15,8.6-12.2,21.2-15-8.6L0,127l44.9,25.9,24.4-42.3,53.7,31c11.7,6.8,26.6,2.7,33.4-8.9,6.7-11.7,2.7-26.6-8.9-33.4l-53.7-31,24.4-42.3L73.3,0l-30.5,52.9Z"/>
  <path d="M280,6.5c1.8,0,3.3,1.5,3.3,3.3s-1.5,3.3-3.3,3.3-3.3-1.5-3.3-3.3c0-1.8,1.4-3.3,3.3-3.3ZM280,12.8c1.7,0,3-1.3,3-3s-1.3-3-3-3-3,1.3-3,3,1.3,3,3,3ZM281.1,11.6c-.1-.1-.1-.3-.1-.7,0-.7-.4-.9-1.2-.9h-.8v1.6h-.3v-3.6h1.3c.8,0,1.4.2,1.4,1,0,.4-.3.7-.7.9.5.2.6.5.6,1.2,0,.2.1.4.1.5,0,0-.3,0-.3,0ZM280.2,8.3h-1.1v1.5h.9c.8,0,1.1-.3,1.1-.7,0-.6-.3-.8-.9-.8Z"/>
</svg>